<svg xmlns="http://www.w3.org/2000/svg" xmlns:xlink="http://www.w3.org/1999/xlink" style="width:0;height:0;visibility:hidden;">
   <defs/>
   <symbol id="rd-icon-spotter" viewBox="0 0 157.421875 218.359375" fill="black">
<g id="NLM" stroke="none" stroke-width="1" fill="none" fill-rule="evenodd"><g id="Artboard" transform="translate(-474.4844, -3507.8594)" fill-rule="nonzero"><g id="Group-5" transform="translate(378, 3452)"><g id="Group" transform="translate(96.4844, 55.8594)"><polygon id="Path" fill="#3EC28C" points="123.014464 62.5631749 157.421875 121.819547 123.014464 121.819547"></polygon><path d="M61.5089142,0 L61.5089142,0 C95.4774914,0 123.014464,28.0104875 123.014464,62.5631749 L0.00336445215,62.5631749 C0.00336445215,28.0104875 27.540337,0 61.5089142,0 L61.5089142,0 Z" id="Path" fill="#FFBD07"></path><rect id="Rectangle" fill="#E391FF" transform="translate(61.5081, 82.6868) rotate(-180) translate(-61.5081, -82.6868)" x="0.00252333911" y="62.5631749" width="123.0111" height="40.2471734"></rect><rect id="Rectangle" fill="#E391FF" transform="translate(61.5081, 100.5324) rotate(-180) translate(-61.5081, -100.5324)" x="0.00252333911" y="79.1596476" width="123.0111" height="42.7454568"></rect><rect id="Rectangle" fill="#FFBD07" transform="translate(30.7553, 155.7962) rotate(-180) translate(-30.7553, -155.7962)" x="0.00252333911" y="124.514613" width="61.5055498" height="62.5631749"></rect><polygon id="Path" fill="#FFBD07" points="61.5089142 218.359375 61.5089142 218.359375 61.5089142 187.077788 0.00336445215 187.077788"></polygon><path d="M0,121.903393 L58.9208094,121.903393 C94.3182928,121.903393 123.013623,151.092157 123.013623,187.098321 L123.013623,187.098321 L0,187.098321 L0,121.903393 Z" id="Path" fill="#5E7AFF" transform="translate(61.5068, 154.5009) rotate(-180) translate(-61.5068, -154.5009)"></path><ellipse id="Oval" fill="#ED681E" cx="61.5089142" cy="63.7156364" rx="52.39209" ry="53.2930037"></ellipse><g transform="translate(35.6682, 42.8353)" fill="#F8C3A5"><path d="M25.8407191,9.16234871 L31.3079538,3.60110156 C34.3175515,0.507455571 38.724983,-0.710644117 42.8598434,0.408459049 C46.9947038,1.52756222 50.2242144,4.81260619 51.3243992,9.018568 C52.424584,13.2245298 51.2270762,17.7077497 48.185728,20.7690993 L25.9138959,43.4239091 L25.8415602,43.3494739 L42.6469987,26.2550557 L25.8407191,9.16234871 Z" id="Path"></path><path d="M3.49655124,3.60281271 L3.49655124,3.60281271 C8.15725747,-1.13790667 15.7136192,-1.13790667 20.3743254,3.60281271 L25.8415602,9.16405987 L9.0361217,26.258478 L25.8415602,43.3528962 L25.7683834,43.4273314 L3.49739235,20.7725216 C1.2582621,18.4961485 0,15.4080135 0,12.1878444 C0,8.96767535 1.25764403,5.87941283 3.49655124,3.60281271 L3.49655124,3.60281271 Z" id="Path"></path><polygon id="Rectangle" transform="translate(25.8407, 26.257) rotate(-45) translate(-25.8407, -26.257)" points="13.9575008 14.3737993 37.9283304 14.1694598 37.7239908 38.1402893 13.7531612 38.3446289"></polygon></g></g></g></g></g>
   </symbol>
</svg>


