

<svg xmlns="http://www.w3.org/2000/svg" xmlns:xlink="http://www.w3.org/1999/xlink" style="width:0;height:0;visibility:hidden;">
   <defs/>
   <symbol id="rd-icon-spotter" viewBox="0 0 35 48" fill="black">
<g>
<path style=" stroke:none;fill-rule:nonzero;fill:rgb(24.313726%,76.078433%,54.901963%);fill-opacity:1;" d="M 27.351562 13.761719 L 35 26.777344 L 27.351562 26.777344 Z M 27.351562 13.761719 "/>
<path style=" stroke:none;fill-rule:nonzero;fill:rgb(100%,74.117649%,2.745098%);fill-opacity:1;" d="M 13.675781 0.0234375 C 21.226562 0.0234375 27.351562 6.175781 27.351562 13.761719 L 0 13.761719 C 0 6.175781 6.125 0.0234375 13.675781 0.0234375 Z M 13.675781 0.0234375 "/>
<path style=" stroke:none;fill-rule:nonzero;fill:rgb(89.019608%,56.862748%,100%);fill-opacity:1;" d="M 27.351562 22.601562 L 0 22.601562 L 0 13.761719 L 27.351562 13.761719 Z M 27.351562 22.601562 "/>
<path style=" stroke:none;fill-rule:nonzero;fill:rgb(89.019608%,56.862748%,100%);fill-opacity:1;" d="M 27.351562 26.792969 L 0 26.792969 L 0 17.40625 L 27.351562 17.40625 Z M 27.351562 26.792969 "/>
<path style=" stroke:none;fill-rule:nonzero;fill:rgb(100%,74.117649%,2.745098%);fill-opacity:1;" d="M 13.675781 41.105469 L 0 41.105469 L 0 27.367188 L 13.675781 27.367188 Z M 13.675781 41.105469 "/>
<path style=" stroke:none;fill-rule:nonzero;fill:rgb(100%,74.117649%,2.745098%);fill-opacity:1;" d="M 13.675781 47.976562 L 13.675781 41.105469 L 0 41.105469 Z M 13.675781 47.976562 "/>
<path style=" stroke:none;fill-rule:nonzero;fill:rgb(36.862746%,47.843137%,100%);fill-opacity:1;" d="M 27.351562 41.109375 L 14.25 41.109375 C 6.378906 41.109375 0 34.699219 0 26.792969 L 27.351562 26.792969 Z M 27.351562 41.109375 "/>
<path style=" stroke:none;fill-rule:nonzero;fill:rgb(92.941177%,40.784314%,11.764706%);fill-opacity:1;" d="M 25.324219 14.015625 C 25.324219 20.480469 20.109375 25.71875 13.675781 25.71875 C 7.242188 25.71875 2.027344 20.480469 2.027344 14.015625 C 2.027344 7.554688 7.242188 2.3125 13.675781 2.3125 C 20.109375 2.3125 25.324219 7.554688 25.324219 14.015625 Z M 25.324219 14.015625 "/>
<path style=" stroke:none;fill-rule:nonzero;fill:rgb(97.254902%,76.47059%,64.705884%);fill-opacity:1;" d="M 13.675781 11.441406 L 14.890625 10.222656 C 15.558594 9.542969 16.539062 9.273438 17.460938 9.519531 C 18.378906 9.765625 19.097656 10.488281 19.339844 11.410156 C 19.585938 12.335938 19.320312 13.320312 18.644531 13.992188 L 13.691406 18.96875 L 13.675781 18.949219 L 17.410156 15.195312 Z M 13.675781 11.441406 "/>
<path style=" stroke:none;fill-rule:nonzero;fill:rgb(97.254902%,76.47059%,64.705884%);fill-opacity:1;" d="M 8.707031 10.222656 C 9.742188 9.179688 11.425781 9.179688 12.460938 10.222656 L 13.675781 11.445312 L 9.9375 15.199219 L 13.675781 18.953125 L 13.660156 18.96875 L 8.707031 13.992188 C 8.210938 13.492188 7.929688 12.816406 7.929688 12.109375 C 7.929688 11.402344 8.210938 10.722656 8.707031 10.222656 Z M 8.707031 10.222656 "/>
<path style=" stroke:none;fill-rule:nonzero;fill:rgb(97.254902%,76.47059%,64.705884%);fill-opacity:1;" d="M 9.9375 15.195312 L 13.675781 11.441406 L 17.410156 15.195312 L 13.675781 18.949219 Z M 9.9375 15.195312 "/>
</g>
   </symbol>
</svg>
